<svg xmlns="http://www.w3.org/2000/svg" width="94.526" height="25.007" viewBox="0 0 94.526 25.007">
  <path id="合体_25" data-name="合体 25" d="M87.431,136.7l-.247-.057-.152-.063-.241-.12-.291-.077-.342-.057-.411-.05-1.848.044-1.887-.013-2.12-.018-1.089-.077-.259-.107-.159-.1-.139-.132-.108-.121-.07-.12-.063-.158v-.165l.025-.164.063-.159.063-.12.108-.133.1-.1.158-.164.089-.127.1-.158.057-.164.038-.145.013-.253.007-2.506.019-3.386v-3.443l.044-1.133.013-2.525.038-1.31.018-2.146-.006-.456.006-.278-.05-.7-.089-.354-.045-.126-.056-.12-.089-.139-.114-.14-.114-.12-.076-.114-.082-.12-.057-.108-.038-.152v-.177l.025-.209.057-.165.108-.177.152-.139.209-.107.222-.063.253-.057.443-.018.747.006,1.557-.013h2.221l.759.019.684.013.462-.025.152-.025.209-.07.209-.1.183-.095.209-.1.26-.032.222.019.234.057.171.089.152.1.127.139.1.133.069.171.159.513.322,1.1.215.95.171.646.127.443.1.418.088.38.051.424.012.336-.012.266-.1.354-.082.147-.114.12-.127.127-.172.076-.189.082-.336-.007-.215-.044-.2-.108-.253-.171-.316-.323-.3-.4-.272-.449-.646-.955-.8-.956L85,116.029l-.3-.183-.214-.114-.279-.045-.177-.006-.158.032-.133.044s-.063.107-.114.114-.07.094-.07.095l-.057.2-.019.222-.044,1.063-.032,1.557-.013,1.475.019.2.018.2.044.164.064.164.082.152.12.1.114.032.159.018.177-.043.133-.082.114-.127.127-.177.089-.184.069-.114.083-.133.1-.121.1-.108.133-.088.1-.057.1-.045.139-.012.158-.019.152.013.139.037.127.064.139.082.1.089.165.158.145.215.1.2.152.322.361.861.227.645.254.7.265.7.108.354.114.367.089.3.057.247.063.266a1.468,1.468,0,0,1,.013.2c-.006.038-.013.17-.013.172l-.025.17-.057.159-.07.127-.088.095-.114.1-.082.051-.1.044-.133.044-.127.032L87.468,127,87.343,127l-.152-.032-.133-.057-.108-.063-.253-.19-.361-.342-.342-.431-.431-.506-.335-.417-.405-.348-.284-.171-.209-.089-.165-.031-.272.006-.183.025s-.1.12-.146.127-.094.132-.095.133l-.082.189-.025.292-.038,1.816-.019,2.405V131.1l.012,1.3.019.31.025.183.076.2.1.145.132.108.107.076.139.063.215.038h.222l.272-.032.266-.063.259-.089.3-.152.26-.171.266-.215.158-.177.145-.158.2-.24.24-.286.145-.222.222-.31.2-.278.184-.272.12-.184.133-.177.12-.177.114-.152.152-.146.114-.12.1-.1.1-.069.1-.051.082-.038.1-.038.108-.032.127-.006.1.006.108-.006.1.019.114.006.114.05.108.063.12.076.076.076.063.089.082.139.045.165.032.165.013.17-.007.336-.063.373-.12.487-.234.842-.291,1.05-.323,1.171-.259.817-.1.272-.19.323-.114.158a2.014,2.014,0,0,1-.171.14.4.4,0,0,0-.052.033.391.391,0,0,1-.088.05c-.018,0-.175.05-.177.05l-.164.026Zm-16.391-.069-.209-.006-.3-.019-.266-.026-.354-.051-.437-.094-.393-.115-.266-.094-.411-.215-.367-.19-.373-.254-.254-.2-.31-.285-.354-.43-.228-.367-.183-.36-.127-.386-.057-.329-.063-.323-.025-.278-.044-.6.006-.373.026-1.1-.007-.772.05-1.849.006-.677.019-1.911.038-2.5.069-3.2.032-3.088v-.709l-.012-.2-.025-.158-.038-.107-.044-.089L66.1,115.2l-.07-.1-.127-.139-.12-.127-.1-.14-.089-.107-.069-.139-.038-.088-.013-.133v-.114L65.49,114l.076-.177.114-.14.132-.132.152-.077.215-.089.234-.063.291-.032.563-.013,1.063.007.677-.007.469-.013h.443l.469.057.278.051.19.07.121.05.133.114.108.152.082.164.05.177v.3l-.069.134-.133.2-.114.107-.139.145-.114.127-.089.126-.076.158-.038.14-.025.152-.037.848-.007.759.007,1.153-.064,1.543.007.893.007,1.86.012,1.974.013.975.007,1.943-.013,1.019-.013,2.057.007.817.006.6.044.214.057.209.069.183.064.127.089.126.057.082.07.082.089.082.1.07a.274.274,0,0,1,.089.044.573.573,0,0,0,.12.069l.133.045.215.05.2.032.228-.019.208-.044.2-.064.2-.082.171-.126.146-.139.1-.12.107-.152.1-.259.057-.266.038-.266.025-.373.019-.456.006-.569.013-1.405.006-1.24-.025-1.608v-2.627l.019-1.93L73.5,119.7l-.012-1.728.006-1.677-.044-.563-.019-.2-.038-.133-.057-.152-.057-.127-.076-.1-.088-.082-.159-.158-.069-.077-.07-.1-.05-.1-.051-.12-.019-.1-.006-.178.025-.152.044-.134.076-.088.114-.1.146-.082.17-.089.259-.077.329-.057.95-.038.57-.013.538.025.4.045.279.082.234.069.165.088.158.134.082.082.089.114a.654.654,0,0,1,.019.107c0,.032.006.144.006.146l.007.12s-.013.083-.019.1-.062.125-.063.127l-.063.082-.069.089-.1.089-.1.108-.082.088-.082.1-.07.1-.07.114-.063.126-.038.12-.038.443-.007.253v.671l.007,1.842.019,1.456.038,1.74.032,1.247.007,1.158-.007.013.019,2.62.025,2.392.032.943v1.5l-.057.854-.038.292-.032.165-.044.247-.057.184-.044.171-.076.265-.1.19-.1.184-.152.285-.146.209-.158.215-.19.234-.152.12-.158.14-.177.12-.222.171-.209.14-.222.139s-.178.076-.215.089-.188.075-.189.076l-.222.089-.247.044-.228.057-.24.043-.2.045-.341.037-.437.026-.481.013Zm31.569-.02-.3-.044-.386-.063-.291-.076-.424-.127-.329-.1-.183-.051-.228-.013-.209.007-.158.031-.2.057-.164.07-.171.044-.247.006-.2-.025-.19-.063-.145-.089-.164-.1-.159-.145-.094-.14-.089-.158-.076-.215-.064-.165-.063-.171-.044-.222-.045-.279-.043-.316-.07-.449-.057-.329-.025-.247-.07-.367-.069-.373-.089-.488-.069-.367-.1-.772-.039-.209-.031-.323.006-.253.007-.234.007-.164v-.184l.032-.127.031-.114.032-.076.057-.133.051-.1.044-.051.057-.063.063-.058.044-.037.089-.044.082-.045.108-.032.133-.025.133-.013h.12l.133.007.108.031.114.051.089.038.108.076.1.1.108.127.089.146.089.158.114.272.3.779.1.222.076.2.177.417.291.6.209.481.259.411.234.311.127.145.107.114.114.108.127.088.113.089.12.044.121.051.17.031.158.013.158.006.121-.025.113-.051.121-.063.107-.044.1-.082.12-.089.076-.089.145-.19.107-.209.139-.3.063-.323.082-.354.051-.463.044-.589.007-.417-.007-.379v-.418l-.031-.38-.019-.468-.045-.38-.075-.355-.082-.265-.121-.3-.114-.3-.17-.355-.234-.354-.222-.3-.221-.272-.26-.272-.222-.19-.405-.367-.474-.424-.626-.569-.374-.38-.272-.285-.228-.272-.24-.266-.209-.285-.209-.3-.241-.4-.152-.279-.113-.266-.1-.26-.089-.335-.069-.279-.064-.285-.076-.354-.05-.311-.018-.234V119l.012-.253.012-.19.038-.336.019-.234.038-.247.063-.424.032-.165.038-.221.07-.19.037-.19.063-.2.069-.19.076-.2.076-.2.126-.259.083-.133.082-.152L99,115.11l.076-.114.1-.152.139-.17.089-.127.094-.114.089-.133.1-.139.1-.1.12-.139.12-.114.1-.088.1-.082.089-.076.152-.089.1-.05.234-.114.2-.089.19-.064.2-.082.145-.038.114-.019.127-.038.146-.019.139-.019.133-.006.121-.013h.278l.139-.006.234.006.152.013.234.032.171.043.146.019.126.038.146.038.152.038.152.025.114.019.089.012h.132l.114-.012.12-.013.1-.012.089-.025.12-.019.1-.007h.089l.12.013.127.026.107.032.1.038.094.063.089.082.089.1.082.095.152.234.063.146.038.165.038.177.032.2.051.247.032.209.082.43.038.234.057.374.044.329.05.272.05.291.045.3.032.266.019.145-.007.171.019.2.013.183.007.159.006.133-.006.158-.013.121-.025.132-.032.108-.025.1-.057.12-.063.089-.057.057-.082.063-.089.063-.108.058-.139.044-.1.038-.1.006-.127.013-.1-.007-.114-.025-.127-.051-.07-.051-.076-.043-.069-.045-.07-.069-.063-.045-.063-.069-.063-.1-.089-.12-.069-.108-.063-.146-.107-.2-.089-.19-.076-.2-.063-.17-.082-.209-.063-.177-.089-.2-.133-.3-.152-.317-.183-.379-.152-.259-.171-.26-.12-.126-.1-.133-.189-.133-.158-.07-.209-.025-.2.025-.145.051a.687.687,0,0,1-.121.063.849.849,0,0,0-.132.12.793.793,0,0,1-.134.114c-.019,0-.081.125-.082.126l-.063.127-.083.152-.057.19-.063.221-.038.215-.044.184-.013.215.013.259.019.253.006.177.012.177.045.221.177.361.145.253.152.26.127.209.215.259.355.316.265.209.576.45.4.3.3.24.361.279.3.266.229.2.651.62.329.373.26.329.272.367.139.222.184.284.164.33.171.4.159.393.247.57.107.3.076.3.063.341.057.355.082.563.057.861.026.506-.019.469-.032.494-.038.544-.07.412s-.077.468-.089.506-.113.464-.114.468l-.114.373-.127.4-.139.355-.19.373-.165.367-.2.336-.209.341-.164.222-.348.406-.158.164-.127.127-.215.17-.55.387s-.285.171-.323.184-.345.169-.348.17l-.316.133-.3.108-.341.063-.431.032s-.247.032-.265.032S102.612,136.615,102.609,136.615Zm-56.9-.081-.3-.043-.386-.064-.291-.076-.424-.127-.329-.1-.184-.05-.228-.013-.209.006-.158.032-.2.057-.165.069-.171.044-.247.007-.2-.026-.19-.063-.145-.089-.165-.1-.159-.145-.1-.139-.089-.159-.076-.215-.063-.164L41.168,135l-.044-.222-.044-.278-.044-.316-.07-.449-.057-.329-.025-.247-.07-.367-.07-.373-.089-.488-.07-.367-.1-.772-.038-.209-.032-.322.012-.487.007-.165v-.184l.032-.127.032-.114.032-.077.057-.132.051-.1.044-.052.057-.063.063-.058.044-.038.089-.044.082-.044.108-.032.133-.026.133-.013h.12l.133.007.108.032.114.05.089.038.107.077.1.1.108.127.089.146.089.158.114.272.3.778.1.222.076.2.177.417.291.6.208.481.26.411.234.311.127.145.107.114.114.107.126.089.114.089.12.044.121.051.17.032.158.012.159.007.12-.025.114-.051.121-.063.107-.044.1-.082.12-.089.077-.089.145-.19.107-.209.139-.3.063-.322.082-.354.051-.462.044-.589.007-.417-.007-.38v-.418l-.032-.379-.019-.468-.044-.38-.076-.354-.082-.266-.12-.3-.114-.3-.171-.354-.234-.354-.222-.3-.222-.272-.26-.272-.222-.19-.4-.367-.474-.424-.626-.569-.374-.38-.272-.285-.228-.272-.24-.266-.209-.285-.209-.3-.24-.4-.152-.279-.114-.266-.1-.259-.089-.336-.07-.279-.063-.284-.076-.355-.051-.31-.019-.234v-.279l.013-.253.012-.189.038-.336.019-.234.038-.247.063-.424.032-.164.038-.222.07-.19.038-.19.064-.2.069-.19.076-.2.077-.2.127-.26.082-.132.082-.152.076-.107.076-.114.1-.152.14-.171.088-.127.1-.114.089-.133.1-.139.1-.1.12-.139.12-.115.1-.088.1-.082.089-.076.152-.089.1-.05.234-.114.2-.089.19-.063.2-.082.146-.038.114-.018.127-.038.145-.019.14-.019.133-.006.12-.013h.278l.139-.006.234.006.152.013.234.032.171.044.145.019.127.038.145.038.152.038.152.025.114.019.088.013h.133l.114-.013.12-.013.1-.013.089-.025.12-.018.1-.007h.089l.121.012.126.025.108.032.1.038.1.063.089.082.089.1.082.1.152.234.064.146.038.164.038.177.032.2.051.247.032.209.082.431.038.234.057.373.044.329.051.272.05.291.044.3.032.266.019.145-.006.171.018.2.013.183.006.159.006.132-.006.159-.013.12-.025.133-.032.107-.026.1-.057.12-.063.089-.057.057-.082.063-.089.063-.107.057-.14.044-.1.038-.1.006-.127.013-.1-.007-.114-.025-.063-.026-.063-.025-.069-.051-.076-.044-.07-.044-.07-.07-.063-.044-.063-.07-.063-.1-.089-.12-.07-.107L48,118.648l-.107-.2-.089-.19-.14-.373-.082-.209-.063-.177-.089-.2-.133-.3-.152-.317-.184-.38-.152-.259-.172-.26-.119-.127-.1-.132-.19-.133-.158-.07-.209-.025-.2.025-.145.05a.662.662,0,0,1-.121.063.869.869,0,0,0-.132.12.775.775,0,0,1-.133.114c-.018,0-.081.125-.082.127l-.063.126-.082.152-.057.19-.063.221-.038.215-.044.183-.012.215.012.26.019.253.007.177.013.177.044.221.177.361.145.253.152.259.127.209.215.259.354.317.266.209.576.449.4.3.3.24.361.278.3.266.228.2.652.621.329.373.259.329.272.367.139.222.184.285.165.33.171.4.158.392.247.569.108.3.076.3.063.342.057.354.082.564.057.861.025.506-.019.468-.031.494-.038.544-.069.411s-.077.469-.089.506-.113.464-.114.468l-.114.374-.127.405-.139.355-.19.373-.165.367-.2.336-.209.341-.164.222-.348.406-.158.164-.127.127-.215.171-.55.386s-.285.171-.323.184-.345.169-.348.171l-.316.132-.3.108-.342.064-.431.031s-.247.032-.266.032S45.716,136.535,45.713,136.534Zm85.772-.044H129.8l-.74-.038-.4-.069-.171-.083-.158-.127-.134-.165-.069-.114-.051-.152-.032-.19.037-.2.063-.159.1-.184.134-.158.082-.082.114-.132.063-.146.025-.3-.063-.462-.108-.526-.088-.329-.082-.126-.083-.1-.17-.114-.279-.076-.259-.019-.481-.006-.538.019-.5.007a.36.36,0,0,0-.114.032l-.158.082-.113.088-.082.139-.077.316-.063.354-.038.317-.044.4.037.285.133.234.139.183.159.158.145.184.114.184.025.222v.19l-.063.177-.076.133s-.1.108-.146.108-.15.093-.152.094l-.261.064-.455.032-.55.018-1.146-.006-.8-.038-.45-.051-.246-.057-.222-.082-.171-.139-.089-.089-.082-.178-.032-.177-.006-.146.025-.171.077-.114.063-.089.082-.088.132-.139.133-.108.14-.12.108-.152.089-.139.1-.278.051-.285.051-.279.347-1.98.38-2.253.475-2.8.506-2.937.183-1.082.329-1.8.2-1.171.221-1.418.14-.848.215-1.177.145-.785.133-.741.12-.493.076-.209.1-.19.1-.127.107-.089.127-.082.158-.051.336-.064.848-.012.911.038.247.032.139.069.108.07.076.082.089.076.076.114.07.12.058.184.063.209.272,1.31.449,2.361.431,2.392.279,1.645.374,1.886.367,2.006.342,1.86.4,2.057.367,1.867.31,1.506.107.563.082.411.1.259.126.222.19.228.1.088.139.146.1.139.076.158.045.146.019.19-.032.152-.069.184-.076.127-.147.114-.114.1a1.049,1.049,0,0,1-.184.057.641.641,0,0,0-.122.038.665.665,0,0,1-.144.045c-.044,0-.664.031-.67.031Zm-4.62-12.253-.038.133-.045.184-.037.2-.127.64-.127.8-.107.658-.12.7-.133.874-.063.424-.037.4.025.209.051.108.076.088.1.057.115.044.233.025.848-.025.109-.051.095-.057.057-.077.038-.089.032-.127.006-.146-.013-.12-.17-1.2-.221-1.57-.311-1.772-.025-.177-.007-.083-.051-.057-.051-.019h0ZM92.576,136.407l-.829-.032-.2-.044-.209-.051-.158-.069-.145-.1-.109-.1-.1-.1-.057-.1-.038-.159-.007-.114.032-.145.032-.12.063-.114.063-.12.076-.088.082-.1.114-.114.12-.12.1-.121.082-.2.057-.2.032-.272.019-.563v-.608l.006-.911.007-1.4L91.576,129l.032-1.455.007-1.31L91.6,124.49l.007-1.063-.007-1.95.007-1.031.013-1.7.019-.93-.019-.772-.013-.785-.044-.531-.038-.2-.045-.139-.114-.2-.133-.158-.132-.12-.133-.159-.108-.139L90.8,114.5l-.045-.164-.012-.127.025-.152.026-.12.076-.121.076-.095.1-.089.1-.076.158-.076.177-.057.209-.045.292-.031.278-.007h.221l.513-.007.69.013h.778l.842.006.634.057.227.064.177.082.177.1.115.133.075.133.077.19.007.114-.007.165-.057.171-.082.17-.127.184.127-.184.082-.171.057-.171.007-.165-.007-.113-.076-.19-.075-.132-.114-.133-.177-.1-.178-.082-.227-.063-.634-.057-.842-.007H93.69l-.69-.013-.513.006h-.221l-.278.007-.291.032-.209.044-.178.057-.158.076-.1.076-.1.089-.076.095-.076.121-.025.12-.025.152.012.127.045.164.057.108.108.139.132.158.133.12.133.158.114.2.045.139.038.2.044.531.013.785.019.772-.019.93-.013,1.7-.006,1.031.006,1.95L91.6,124.49l.012,1.747-.006,1.31L91.576,129l.032,1.342-.006,1.4-.006.911v.608l-.019.563-.032.272-.057.2-.082.2-.1.12-.119.12-.114.113-.082.1-.076.088-.064.12-.063.114-.032.12-.032.145.007.114.038.158.057.1.1.1.108.1.145.1.158.07.21.051.2.043.829.032,1.285.007.588-.025.614.013.474-.007.361-.025.266-.044.24-.108.158-.127.127-.152.088-.222.025-.24-.026.24-.088.222-.127.152-.158.127-.24.107-.266.044-.361.025-.474.007-.615-.012-.588.025-1.285-.007-.829-.032-.2-.044-.209-.051-.158-.069-.145-.1-.108-.1-.1-.1-.057-.1-.039-.158-.006-.114.032-.145.032-.12.063-.114.063-.12.076-.088.082-.1.114-.114.12-.12.1-.121.082-.2.057-.2.032-.272.019-.564v-.608l.007-.911.006-1.405L91.577,129l.032-1.456.007-1.309L91.6,124.49l.006-1.063-.006-1.949.006-1.031.013-1.7.019-.93-.019-.772-.013-.785-.044-.532-.038-.2-.045-.139-.113-.2-.134-.158-.133-.12-.132-.158-.108-.139L90.8,114.5l-.044-.164-.013-.126.026-.152.025-.12.076-.12.076-.095.1-.089.1-.076.158-.076.177-.057.209-.044.291-.032.278-.007h.222L93,113.34l.689.013h.778l.842.007.634.057.227.063.177.082.177.1.115.133.075.132.077.19.006.114-.006.164-.057.171-.082.171-.127.183-.113.12-.171.159-.152.222-.082.228-.045.266-.006.392-.007.569-.006.684-.026.855-.019,2.538v2.126l-.006,1.165-.019,2.67v4.576l-.019,1.164.025,1.184.032.259.082.247.107.19.2.2.2.178.184.2.076.145.044.222-.044-.221-.076-.146-.184-.2-.2-.177-.2-.2-.107-.19-.082-.247-.032-.26-.025-1.184.019-1.164v-4.576l.018-2.67.007-1.164v-2.127l.018-2.538.027-.854.006-.684.007-.57.006-.392.045-.266.082-.228.152-.221.171-.158.114-.12-.113.12-.171.158-.152.221-.082.228-.045.266-.006.392-.007.57-.006.684-.025.854-.019,2.538v2.127l-.007,1.164-.019,2.67v4.576l-.019,1.164.026,1.184.032.26.082.246.107.19.2.2.2.177.184.2.076.146.044.222-.025.24-.088.222-.127.152-.158.127-.241.108-.266.045-.361.025-.474.007-.614-.013-.588.026Zm17.04-.028-.386-.044-.171-.057-.253-.082-.191-.127-.145-.108-.1-.165-.063-.152-.038-.215.007-.184.05-.171.07-.127.089-.12.089-.077.1-.1.089-.083.113-.126.076-.127.076-.2.051-.177.038-.531-.019-3.557-.013-2.538-.006-1.975-.006-1.525v-1.943l.006-1.683-.019-2.765.019-.93-.019-.456-.038-.278-.038-.241-.089-.17-.152-.19-.127-.132-.127-.159-.1-.145-.064-.177-.031-.209.019-.209.057-.177.057-.107.108-.127.133-.145.247-.12.228-.057.348-.064.64-.025.885-.007.8.013.963-.013.569.025.323.05.159.076.139.1.12.108.1.12.07.14.044.139.032.184v.094l-.013.077-.057.127-.05.1-.095.127-.1.121-.145.145-.14.158-.082.139-.082.17-.032.215-.025.525-.013.532.013.778-.007,1.3.007,1.437-.007.848.019.721.031.177.039.127.076.089.075.076.114.069.3.038.424.018.38-.031.107-.038.1-.038.094-.063.07-.1.07-.127.032-.165.031-.417-.012-.779.012-.936-.006-1.348-.006-.639.012-.9v-.746l-.018-.285-.026-.2-.044-.165-.1-.183-.222-.291-.088-.1-.1-.1-.089-.145-.076-.139-.037-.146-.019-.114.006-.158V114l.057-.12.07-.1.07-.089.095-.1.089-.063.127-.077.171-.057.367-.1.291-.012.525-.038.538-.007h1.323l1.1.038.506.05.152.038.152.063.14.076.107.107.1.134.069.152.032.152.007.216-.038.164-.044.114-.109.152-.082.1-.152.158-.12.146-.107.158-.07.157-.063.355-.019,1.892-.007,3.05-.025,2.8-.007,2.6v2.936l.019,2.227-.019,1.361-.013,1.057.013.285.063.2.07.19.069.164.139.164.121.14.1.133.077.12.063.139.032.171v.159l-.057.19-.1.159-.152.159-.146.107-.222.076-.347.051-.665.038-1.1.026-1.253-.013-.842-.032-.335-.037-.241-.038a1.707,1.707,0,0,1-.2-.115,1.316,1.316,0,0,0-.152-.108l-.126-.145-.082-.12-.032-.159-.013-.146.032-.127.057-.121.064-.114.076-.12.082-.089.12-.12.127-.108.088-.107.089-.1.051-.095.07-.089.031-.176.019-.323.013-1.893-.013-2.746-.013-2.241v-.917l-.031-.336-.05-.139-.051-.075-.076-.063-.076-.037-.1-.026-.214-.007-.354.007-.317.007-.228.013-.209.063-.1.07-.07.063-.03.133-.013.227-.025.608-.026.956v2.246l.019,1.228-.012,1.189.012.556v.76l.013.513.012.266.025.177.063.114.089.152.12.152.121.133.1.1.07.076.063.089.052.107.032.121-.025.253-.089.215-.1.139s-.114.114-.152.121a.528.528,0,0,0-.133.089.925.925,0,0,1-.2.07,1.045,1.045,0,0,0-.2.057l-.33.013h-.411l-.5.006-.8.013Zm-56.062-.212-.386-.044L53,136.065l-.253-.082-.19-.127-.145-.107-.1-.165-.063-.152-.038-.215.006-.184.051-.171.07-.127.089-.12.089-.076.1-.1.088-.083.115-.126.076-.127.076-.2.051-.177.038-.531-.013-2.392-.007-1.164-.013-2.538-.006-1.974L53,123.6v-1.942l.007-1.683L52.99,117.2l.019-.93-.019-.456-.038-.278-.038-.241-.089-.171-.152-.19-.127-.132-.127-.158-.1-.146-.063-.177-.032-.209.019-.21.057-.177.057-.107.107-.127.134-.145.247-.121.228-.057.348-.064.639-.025.886-.006.8.013.962-.013.569.025.322.05.159.076.14.1.12.108.1.12.069.139.044.139.032.184v.094l-.013.077-.057.127-.051.1-.095.127-.1.12-.146.146-.139.158-.082.139-.082.17-.032.215-.025.525-.012.531.012.779-.006,1.3.006,1.436-.006.848.019.721.032.177.038.127.075.088.076.076.115.07.3.038.424.019.379-.032.108-.038.1-.038.095-.063.07-.1.069-.127.032-.165.032-.417-.013-.778.013-.937L59.4,118.18l-.007-.639.013-.9V115.9l-.019-.285-.026-.2-.043-.164-.1-.184L59,114.776l-.089-.1-.095-.1-.089-.146-.075-.139-.038-.146-.018-.114.007-.158v-.083l.057-.12.069-.1.07-.089.1-.1.089-.063.127-.077.171-.057.367-.1.292-.012.525-.038.538-.007h1.323l1.1.038.506.051.152.038.152.064.14.075.107.108.1.134.07.152.032.152.007.215-.038.164-.044.115-.108.152-.082.1-.152.158-.12.146-.107.158-.07.157-.063.355-.019,1.892-.007,3.051-.025,2.8-.007,2.6v2.936l.019,2.227-.019,1.361-.013,1.057.013.285.064.2.069.19.069.164.139.164.121.14.1.133.077.12.063.139.031.172v.157l-.057.191-.1.158-.152.158-.145.108-.222.076-.348.051-.664.038-1.1.026-1.253-.013-.842-.032-.335-.037-.241-.038a1.636,1.636,0,0,1-.2-.114,1.452,1.452,0,0,0-.152-.108l-.127-.145-.082-.12-.032-.159-.012-.146.032-.127L58.6,135l.063-.114.076-.12.082-.089.12-.12.127-.108.089-.107.089-.1.051-.094.069-.089.032-.177.019-.322.013-1.892-.013-2.747-.013-2.24v-.917l-.032-.336-.051-.139-.05-.076-.076-.064-.076-.037-.1-.025-.215-.007-.671.013-.228.013-.209.063-.1.069-.07.064-.032.132-.012.227-.026.608-.025.955v2.246l.018,1.228-.012,1.189.012.556v.76l.013.513.012.265.026.177.063.114.089.152.12.152.12.133.1.1.069.076.063.089.051.107.032.121-.025.253-.089.215-.1.14s-.114.114-.153.12a.547.547,0,0,0-.132.088.877.877,0,0,1-.2.07,1.023,1.023,0,0,0-.2.057l-.33.013h-.411l-.5.006-.8.013Z" transform="translate(-39.915 -112.228)" fill="#000" stroke="rgba(0,0,0,0)" stroke-miterlimit="10" stroke-width="1"/>
</svg>
