<svg width="159" height="48" viewBox="0 0 159 48" fill="none" xmlns="http://www.w3.org/2000/svg">
<path d="M79.9335 46.9747L79.5136 46.8631L79.2552 46.7397L78.8455 46.5048L78.3507 46.354L77.7693 46.2423L77.0705 46.1444L73.9287 46.2306L70.7205 46.2051L67.1162 46.1699L65.2648 46.0191L64.8244 45.8096L64.5541 45.6137L64.3178 45.3552L64.1342 45.1183L64.0152 44.8833L63.9081 44.5739V44.2508L63.9506 43.9296L64.0577 43.6183L64.1648 43.3833L64.3484 43.1228L64.5184 42.927L64.787 42.6058L64.9383 42.3571L65.1084 42.0478L65.2053 41.7266L65.2699 41.4426L65.292 40.9472L65.3039 36.0398L65.3362 29.4091V22.6669L65.411 20.4481L65.4331 15.5035L65.4977 12.9382L65.5283 8.73579L65.5181 7.84284L65.5283 7.29844L65.4433 5.92765L65.292 5.23444L65.2155 4.9877L65.1203 4.7527L64.9689 4.4805L64.7751 4.20635L64.5813 3.97135L64.4521 3.74811L64.3127 3.51311L64.2158 3.30163L64.1512 3.00398V2.65736L64.1937 2.24809L64.2906 1.92497L64.4742 1.57836L64.7326 1.30616L65.088 1.09664L65.4654 0.973258L65.8955 0.861639L66.6487 0.826395L67.9187 0.838138L70.5658 0.812679H74.3418L75.6322 0.849896L76.7951 0.875339L77.5805 0.826395L77.839 0.777435L78.1943 0.640358L78.5496 0.444535L78.8608 0.258498L79.2161 0.0626747L79.6581 0L80.0355 0.0372164L80.4334 0.148836L80.7241 0.323115L80.9825 0.518938L81.1984 0.791135L81.3685 1.05159L81.4858 1.38645L81.7561 2.39104L82.3035 4.54512L82.6691 6.40547L82.9598 7.6705L83.1757 8.53801L83.3457 9.35656L83.4953 10.1007L83.582 10.931L83.6024 11.589L83.582 12.1099L83.412 12.8031L83.2726 13.091L83.0788 13.326L82.8629 13.5747L82.5704 13.7235L82.2491 13.8841L81.6779 13.8704L81.3123 13.7842L80.9723 13.5727L80.5422 13.2378L80.0049 12.6053L79.4949 11.822L79.0325 10.9428L77.9342 9.07262L76.5741 7.20052L75.8005 6.49555L75.2905 6.13719L74.9266 5.91395L74.4523 5.82582L74.1514 5.81407L73.8828 5.87673L73.6566 5.96291C73.6566 5.96291 73.5495 6.17244 73.4628 6.18615C73.3761 6.19986 73.3438 6.37023 73.3438 6.37219L73.2469 6.76383L73.2146 7.19857L73.1398 9.28019L73.0854 12.3292L73.0633 15.2176L73.0956 15.6093L73.1262 16.0009L73.201 16.3221L73.3098 16.6432L73.4492 16.9409L73.6532 17.1367L73.847 17.1994L74.1174 17.2346L74.4183 17.1504L74.6444 16.9899L74.8382 16.7412L75.0541 16.3946L75.2055 16.0342L75.3228 15.811L75.4639 15.5505L75.6339 15.3136L75.8039 15.1021L76.03 14.9298L76.2 14.8182L76.37 14.73L76.6064 14.7065L76.875 14.6693L77.1334 14.6948L77.3697 14.7672L77.5857 14.8926L77.822 15.0531L77.992 15.2274L78.2725 15.5368L78.519 15.9579L78.689 16.3495L78.9474 16.9801L79.5612 18.6661L79.9471 19.9292L80.379 21.3L80.8295 22.6708L81.0131 23.364L81.2069 24.0827L81.3582 24.6701L81.4551 25.1538L81.5623 25.6747C81.5774 25.8046 81.5848 25.9354 81.5844 26.0664C81.5742 26.1408 81.5623 26.3993 81.5623 26.4032L81.5198 26.7361L81.4229 27.0475L81.3038 27.2962L81.1542 27.4822L80.9604 27.678L80.821 27.7779L80.651 27.8641L80.4249 27.9502L80.209 28.0129L79.9964 27.9796H79.7839L79.5255 27.917L79.2994 27.8053L79.1158 27.682L78.6856 27.3099L78.0719 26.6402L77.4904 25.7962L76.7577 24.8053L76.1881 23.9887L75.4996 23.3072L75.0167 22.9723L74.6614 22.798L74.3809 22.7373L73.9185 22.7491L73.6073 22.798C73.6073 22.798 73.4373 23.0331 73.3591 23.0468C73.2809 23.0605 73.1993 23.3052 73.1976 23.3072L73.0582 23.6773L73.0157 24.2491L72.9511 27.8053L72.9188 32.5149V36.0085L72.9392 38.5542L72.9715 39.1613L73.014 39.5196L73.1432 39.9113L73.3132 40.1952L73.5376 40.4067L73.7195 40.5555L73.9559 40.6789L74.3214 40.7533H74.6988L75.1613 40.6907L75.6135 40.5673L76.0538 40.393L76.5639 40.0954L77.0059 39.7605L77.4581 39.3395L77.7268 38.9928L77.9733 38.6835L78.3133 38.2135L78.7213 37.6534L78.9679 37.2187L79.3453 36.6116L79.6853 36.0672L79.9981 35.5346L80.2021 35.1742L80.4283 34.8276L80.6323 34.481L80.8261 34.1834L81.0845 33.8975L81.2783 33.6625L81.4483 33.4667L81.6184 33.3315L81.7884 33.2317L81.9278 33.1572L82.0978 33.0828L82.2814 33.0202L82.4973 33.0084L82.6674 33.0202L82.851 33.0084L83.021 33.0456L83.2148 33.0574L83.4086 33.1553L83.5922 33.2786L83.7962 33.4275L83.9254 33.5763L84.0326 33.7506L84.172 34.0228L84.2485 34.3459L84.3029 34.669L84.325 35.0019L84.3131 35.6599L84.206 36.3903L84.002 37.344L83.6041 38.9928L83.1094 41.049L82.5602 43.3422L82.1199 44.9421L81.9499 45.4747L81.6269 46.1072L81.4331 46.4166C81.3406 46.5141 81.2435 46.6056 81.1423 46.6908C81.1115 46.7097 81.0819 46.7313 81.0539 46.7554C81.0079 46.7954 80.9576 46.8283 80.9043 46.8533C80.8737 46.8533 80.6068 46.9512 80.6034 46.9512L80.3246 47.0022L79.9335 46.9747ZM52.0666 46.8396L51.7113 46.8279L51.2013 46.7907L50.749 46.7397L50.1472 46.6399L49.4042 46.4558L48.7361 46.2306L48.2838 46.0465L47.5851 45.6255L46.9611 45.2534L46.327 44.756L45.8951 44.3644L45.3681 43.8063L44.7663 42.9642L44.3786 42.2455L44.0675 41.5406L43.8516 40.7847L43.7547 40.1404L43.6476 39.5079L43.6051 38.9635L43.5302 37.7885L43.5405 37.0581L43.5847 34.904L43.5728 33.3923L43.6578 29.7714L43.668 28.4457L43.7003 24.7035L43.7649 19.8078L43.8822 13.5414L43.9366 7.49427V6.10586L43.9162 5.7142L43.8737 5.4048L43.8091 5.19526L43.7343 5.02098L43.668 4.87215L43.5489 4.67632L43.333 4.40413L43.129 4.15543L42.959 3.88127L42.8077 3.67174L42.6904 3.39954L42.6258 3.22722L42.6037 2.96676V2.74352L42.6309 2.52224L42.7601 2.17563L42.9539 1.90147L43.1783 1.64299L43.4367 1.4922L43.8023 1.31792L44.2001 1.19454L44.6948 1.13188L45.652 1.10642L47.4593 1.12012L48.6103 1.10642L49.4076 1.08096H50.1608L50.9581 1.19258L51.4308 1.29246L51.7538 1.42954L51.9595 1.52744L52.1856 1.75069L52.3693 2.04835L52.5087 2.36949L52.5937 2.71611V3.30359L52.4764 3.56599L52.2502 3.95765L52.0564 4.16717L51.8201 4.45113L51.6263 4.69983L51.475 4.94656L51.3458 5.25598L51.2812 5.53013L51.2387 5.82779L51.1758 7.48839L51.1639 8.9747L51.1758 11.2326L51.067 14.2542L51.0788 16.0029L51.0908 19.6453L51.1111 23.5109L51.1332 25.4202L51.1452 29.2251L51.1231 31.2205L51.1009 35.2487L51.1128 36.8486L51.1231 38.0235L51.1979 38.4426L51.2948 38.8519L51.4121 39.2102L51.5209 39.4589L51.6722 39.7057L51.7691 39.8663L51.8881 40.0268L52.0394 40.1874L52.2094 40.3245C52.264 40.3423 52.3153 40.3716 52.3607 40.4107C52.4238 40.465 52.4923 40.5104 52.5648 40.5458L52.7909 40.6339L53.1564 40.7318L53.4964 40.7945L53.8841 40.7572L54.2377 40.6711L54.5777 40.5458L54.9178 40.3852L55.2085 40.1384L55.4567 39.8663L55.6267 39.6312L55.8086 39.3336L55.9786 38.8264L56.0755 38.3055L56.1401 37.7846L56.1826 37.0542L56.215 36.1612L56.2252 35.047L56.2473 32.2956L56.2575 29.8674L56.215 26.7185V21.5741L56.2473 17.7947L56.249 13.6843L56.2286 10.3004L56.2388 7.01644L56.1639 5.91395L56.1316 5.52229L56.067 5.26185L55.9701 4.96419L55.8732 4.7155L55.744 4.51966L55.5944 4.3591L55.3241 4.04968L55.2068 3.8989L55.0878 3.70307L55.0028 3.50724L54.9161 3.27226L54.8837 3.07642L54.8736 2.72787L54.9161 2.43021L54.9909 2.1678L55.1201 1.99548L55.3139 1.79964L55.5621 1.63907L55.8511 1.46478L56.2915 1.314L56.8508 1.20237L58.4659 1.12797L59.435 1.10251L60.3497 1.15147L61.0297 1.23958L61.5041 1.40016L61.9019 1.53528L62.1824 1.70761L62.4511 1.97002L62.5905 2.1306L62.7418 2.35383C62.7576 2.42253 62.7684 2.49262 62.7741 2.56337C62.7741 2.62604 62.7843 2.84535 62.7843 2.84927L62.7962 3.08427C62.7962 3.08427 62.7741 3.2468 62.7639 3.28009C62.7537 3.31338 62.6585 3.52487 62.6568 3.52879L62.5497 3.68937L62.4324 3.86364L62.2623 4.03794L62.0923 4.24943L61.9529 4.42176L61.8135 4.61758L61.6945 4.8134L61.5755 5.03664L61.4684 5.28339L61.4038 5.51838L61.3392 6.38589L61.3273 6.88132V8.19532L61.3392 11.8024L61.3715 14.6537L61.4361 18.061L61.4905 20.503L61.5024 22.7706L61.4905 22.7961L61.5228 27.9267L61.5653 32.6109L61.6197 34.4575V37.3949L61.5228 39.0673L61.4582 39.6391L61.4038 39.9622L61.329 40.4459L61.2321 40.8062L61.1572 41.1411L61.028 41.66L60.858 42.0321L60.688 42.3924L60.4296 42.9505L60.1814 43.3598L59.9127 43.7808L59.5897 44.239L59.3313 44.474L59.0627 44.7482L58.7617 44.9832L58.3843 45.318L58.029 45.5922L57.6516 45.8644C57.6516 45.8644 57.3489 46.0132 57.286 46.0387C57.2231 46.0641 56.9664 46.1856 56.9647 46.1875L56.5873 46.3618L56.1674 46.448L55.7797 46.5596L55.3717 46.6438L55.0317 46.7319L54.4519 46.8044L53.709 46.8553L52.8912 46.8807L52.0666 46.8396ZM105.738 46.8004L105.228 46.7143L104.572 46.5909L104.077 46.4421L103.356 46.1934L102.797 45.9976L102.486 45.8977L102.098 45.8722L101.743 45.8859L101.474 45.9466L101.134 46.0583L100.855 46.1953L100.565 46.2815L100.145 46.2933L99.8047 46.2443L99.4817 46.1209L99.2352 45.9466L98.9563 45.7508L98.686 45.4669L98.5262 45.1927L98.3749 44.8833L98.2457 44.4623L98.1369 44.1392L98.0298 43.8043L97.955 43.3696L97.8785 42.8232L97.8054 42.2044L97.6863 41.3252L97.5894 40.6809L97.5469 40.1972L97.4279 39.4785L97.3106 38.7481L97.1593 37.7924L97.042 37.0738L96.872 35.562L96.8057 35.1527L96.753 34.5202L96.7632 34.0248L96.7751 33.5665L96.787 33.2454V32.8851L96.8414 32.6364L96.8941 32.4131L96.9485 32.2643L97.0454 32.0038L97.1321 31.808L97.2069 31.7082L97.3038 31.5848L97.4109 31.4712L97.4857 31.3987L97.637 31.3126L97.7765 31.2244L97.9601 31.1618L98.1862 31.1128L98.4123 31.0874H98.6163L98.8424 31.1011L99.0261 31.1618L99.2199 31.2616L99.3712 31.3361L99.5548 31.4849L99.7248 31.6807L99.9084 31.9294L100.06 32.2153L100.211 32.5247L100.405 33.0574L100.915 34.5829L101.085 35.0176L101.214 35.4093L101.515 36.2258L102.01 37.4008L102.365 38.3427L102.805 39.1476L103.203 39.7566L103.419 40.0405L103.601 40.2638L103.795 40.4753L104.011 40.6476L104.203 40.8219L104.407 40.9081L104.613 41.0079L104.902 41.0686L105.17 41.0941L105.439 41.1058L105.645 41.0569L105.837 40.957L106.043 40.8336L106.224 40.7475L106.394 40.5869L106.598 40.4126L106.728 40.2383L106.974 39.8663L107.156 39.457L107.392 38.8695L107.5 38.237L107.639 37.5438L107.726 36.6371L107.8 35.4837L107.812 34.6671L107.8 33.9249V33.1063L107.748 32.3622L107.715 31.4457L107.639 30.7016L107.511 30.0064L107.372 29.4875L107.166 28.9L106.972 28.3125L106.683 27.6173L106.286 26.9241L105.908 26.3366L105.532 25.804L105.09 25.2713L104.713 24.8993L104.024 24.1806L103.219 23.3503L102.154 22.236L101.518 21.4919L101.056 20.9338L100.668 20.4011L100.26 19.8802L99.905 19.3222L99.5497 18.7347L99.14 17.9514L98.8815 17.405L98.6894 16.8841L98.5194 16.375L98.3681 15.7189L98.2508 15.1726L98.142 14.6145L98.0128 13.9213L97.9278 13.3123L97.8972 12.854V12.3135L97.9176 11.8181L97.938 11.446L98.0026 10.7881L98.0349 10.3298L98.0995 9.84613L98.2066 9.01583L98.261 8.69272L98.3256 8.25994L98.4446 7.88787L98.5075 7.51581L98.6146 7.12415L98.7319 6.75209L98.8611 6.36043L98.9903 5.96878L99.2046 5.46159L99.3457 5.20113L99.4851 4.90349L99.6024 4.69591L99.7316 4.47267L99.9016 4.17502L100.138 3.84212L100.289 3.5934L100.449 3.37017L100.6 3.10973L100.77 2.83753L100.94 2.64169L101.144 2.36949L101.348 2.14625L101.518 1.97393L101.688 1.81335L101.84 1.66452L102.098 1.49024L102.268 1.39232L102.666 1.16908L103.006 0.994802L103.329 0.869468L103.669 0.708889L103.916 0.634486L104.109 0.59727L104.325 0.522852L104.574 0.48565L104.81 0.448449L105.036 0.436691L105.242 0.411233H105.714L105.951 0.39949L106.349 0.411233L106.607 0.436691L107.005 0.499366L107.296 0.583569L107.544 0.620771L107.758 0.695189L108.006 0.769606L108.265 0.844009L108.523 0.892969L108.717 0.93017L108.868 0.953671H109.093L109.286 0.93017L109.49 0.904727L109.66 0.881226L109.812 0.832266L110.016 0.79505L110.186 0.781349H110.337L110.541 0.806808L110.757 0.857724L110.939 0.920384L111.109 0.994802L111.269 1.11816L111.42 1.27874L111.571 1.47457L111.711 1.6606L111.969 2.11884L112.076 2.40475L112.141 2.72787L112.205 3.07447L112.26 3.46613L112.347 3.94981L112.401 4.3591L112.54 5.20113L112.605 5.65937L112.702 6.39176L112.777 7.03603L112.862 7.56868L112.947 8.13852L113.023 8.72601L113.078 9.2469L113.11 9.53086L113.098 9.86571L113.13 10.2574L113.152 10.6157L113.164 10.9271L113.175 11.1875L113.164 11.4969L113.142 11.7339L113.1 11.9924L113.045 12.2039L113.003 12.3997L112.906 12.6347L112.799 12.809L112.702 12.9206L112.563 13.044L112.411 13.1673L112.228 13.2809L111.991 13.3671L111.821 13.4415L111.651 13.4532L111.435 13.4787L111.265 13.465L111.072 13.416L110.856 13.3162L110.737 13.2163L110.607 13.1321L110.49 13.044L110.371 12.9089L110.264 12.8207L110.157 12.6856L110.05 12.4898L109.898 12.2548L109.781 12.0433L109.674 11.7574L109.492 11.3657L109.341 10.9937L109.212 10.602L109.104 10.2691L108.965 9.85984L108.858 9.51323L108.707 9.12158L108.48 8.5341L108.222 7.91333L107.911 7.17115L107.653 6.66396L107.362 6.15482L107.158 5.90806L106.988 5.64762L106.666 5.38717L106.398 5.25009L106.043 5.20113L105.702 5.25009L105.456 5.34997C105.391 5.39885 105.322 5.44019 105.25 5.47335C105.168 5.54238 105.093 5.62114 105.026 5.70833C104.957 5.79224 104.881 5.86712 104.798 5.93157C104.766 5.93157 104.66 6.17635 104.659 6.17831L104.551 6.42702L104.41 6.72467L104.313 7.09673L104.206 7.52951L104.142 7.95054L104.067 8.31086L104.045 8.73188L104.067 9.23907L104.099 9.73451L104.109 10.0811L104.13 10.4277L104.206 10.8605L104.507 11.5674L104.754 12.0629L105.012 12.572L105.228 12.9813L105.594 13.4885L106.197 14.1073L106.648 14.5166L107.627 15.3978L108.307 15.9853L108.817 16.4553L109.431 17.0016L109.941 17.5225L110.33 17.9142L111.437 19.1283L111.996 19.8587L112.438 20.503L112.901 21.2217L113.137 21.6564L113.45 22.2125L113.729 22.8588L114.02 23.6421L114.29 24.4117L114.71 25.5279L114.892 26.1153L115.021 26.7028L115.128 27.3706L115.225 28.0658L115.364 29.1683L115.461 30.8543L115.505 31.8452L115.473 32.7636L115.419 33.731L115.354 34.7963L115.235 35.6031C115.235 35.6031 115.104 36.5196 115.084 36.594C115.063 36.6684 114.892 37.5026 114.89 37.5105L114.696 38.2409L114.48 39.0242L114.244 39.7194L113.921 40.4498L113.64 41.1685L113.3 41.8265L112.945 42.4942L112.666 42.929L112.075 43.724L111.806 44.0452L111.59 44.2939L111.225 44.6268L110.289 45.3846C110.289 45.3846 109.805 45.7195 109.74 45.745C109.676 45.7704 109.154 46.0759 109.149 46.0779L108.611 46.3383L108.101 46.5498L107.522 46.6732L106.789 46.7358C106.789 46.7358 106.369 46.7985 106.338 46.7985C106.308 46.7985 105.743 46.8083 105.738 46.8083V46.8004ZM9.00051 46.6418L8.49047 46.5576L7.83422 46.4323L7.33948 46.2835L6.61862 46.0348L6.05928 45.8389L5.74645 45.741L5.35883 45.7156L5.0035 45.7273L4.73488 45.79L4.39485 45.9016L4.11432 46.0367L3.8236 46.1229L3.40367 46.1366L3.06364 46.0857L2.74062 45.9623L2.4941 45.788L2.21357 45.5922L1.94325 45.3082L1.77324 45.0361L1.62193 44.7247L1.49272 44.3037L1.38561 43.9825L1.2802 43.6457L1.20539 43.211L1.13059 42.6666L1.05578 42.0478L0.936772 41.1685L0.839866 40.5242L0.79736 40.0405L0.678351 39.3219L0.559342 38.5914L0.408029 37.6358L0.28902 36.9171L0.119009 35.4053L0.0544004 34.996L0 34.3655L0.0203969 33.4118L0.0322978 33.0887V32.7284L0.0867046 32.4797L0.141111 32.2565L0.195512 32.1057L0.292425 31.8472L0.379129 31.6513L0.453933 31.5495L0.550839 31.4261L0.657947 31.3126L0.732758 31.2382L0.884071 31.152L1.02348 31.0658L1.20709 31.0032L1.43321 30.9523L1.65933 30.9268H1.86335L2.08947 30.9405L2.27308 31.0032L2.4669 31.1011L2.61821 31.1755L2.80012 31.3263L2.97013 31.5221L3.15375 31.7708L3.30506 32.0567L3.45638 32.3661L3.65019 32.8987L4.16023 34.4223L4.33024 34.857L4.45945 35.2487L4.76038 36.0653L5.25512 37.2402L5.60874 38.1822L6.05078 38.987L6.44861 39.596L6.66453 39.8799L6.84644 40.1032L7.04026 40.3127L7.25447 40.487L7.44829 40.6613L7.65231 40.7475L7.85802 40.8473L8.14705 40.91L8.41567 40.9335L8.68598 40.9472L8.89001 40.8982L9.08382 40.7984L9.28954 40.675L9.47145 40.5888L9.64146 40.4283L9.84548 40.254L9.97639 40.0797L10.2229 39.7076L10.4048 39.2983L10.6411 38.7109L10.7482 38.0803L10.8877 37.3871L10.9744 36.4824L11.0492 35.329L11.0611 34.5124L11.0492 33.7682V32.9497L10.9948 32.2075L10.9625 31.291L10.8877 30.5469L10.7585 29.8537L10.619 29.3328L10.415 28.7453L10.2212 28.1578L9.93049 27.4646L9.53265 26.7714L9.15522 26.1839L8.77779 25.6512L8.33576 25.1186L7.95833 24.7465L7.27827 24.0278L6.47241 23.1975L5.40813 22.0833L4.77228 21.3392L4.30984 20.781L3.92221 20.2484L3.51417 19.7275L3.15885 19.1694L2.80352 18.5819L2.39549 17.7986L2.13707 17.2523L1.94325 16.7314L1.77324 16.2242L1.62193 15.5662L1.50292 15.0199L1.39581 14.4637L1.2666 13.7685L1.17989 13.1615L1.14759 12.7032V12.1569L1.16969 11.6614L1.1901 11.2913L1.2547 10.6333L1.287 10.1751L1.3516 9.69143L1.45871 8.86113L1.51312 8.53997L1.57772 8.10524L1.69673 7.73318L1.76134 7.3611L1.87015 6.96946L1.98746 6.59738L2.11667 6.20572L2.24758 5.81407L2.46349 5.30492L2.6029 5.04644L2.74232 4.74878L2.87153 4.53925L3.00074 4.31601L3.17075 4.01835L3.40877 3.68349L3.55838 3.4348L3.7284 3.21154L3.8797 2.9511L4.04972 2.67891L4.21973 2.48308L4.42375 2.21089L4.62777 1.98567L4.79778 1.81335L4.9678 1.65277L5.1191 1.50395L5.37752 1.32966L5.54754 1.23176L5.94537 1.0085L6.2854 0.834223L6.60842 0.710846L6.94845 0.550267L7.19667 0.475865L7.39049 0.440605L7.6064 0.366202L7.85292 0.328986L8.09094 0.291785L8.31706 0.280042L8.52107 0.254583H8.99371L9.23003 0.242825L9.62786 0.254583L9.88628 0.280042L10.2841 0.342701L10.5748 0.428862L10.8214 0.466064L11.0373 0.540481L11.2838 0.614899L11.5422 0.689317L11.8006 0.738262L11.9945 0.775478L12.1441 0.800936H12.3702L12.564 0.775478L12.768 0.75002L12.938 0.724561L13.0893 0.675602L13.2934 0.640358L13.4634 0.626642H13.6147L13.8204 0.650144L14.0346 0.699103L14.2182 0.761763L14.3882 0.836181L14.5583 0.959558L14.7096 1.12012L14.8609 1.31596L15.0003 1.51178L15.2587 1.97002L15.3675 2.25592L15.4321 2.57707L15.4967 2.92369L15.5511 3.31533L15.6378 3.79903L15.6922 4.2083L15.8317 5.05231L15.8963 5.51055L15.9932 6.24098L16.068 6.88524L16.1547 7.41789L16.2397 7.98774L16.3145 8.57523L16.3689 9.09612L16.4012 9.38006L16.391 9.71492L16.4216 10.1066L16.4437 10.4649L16.4539 10.7763L16.4641 11.0348L16.4539 11.3462L16.4318 11.5811L16.3893 11.8416L16.3349 12.0511L16.2907 12.247L16.1938 12.4819L16.0867 12.6562L15.9898 12.7679L15.8504 12.8912L15.699 13.0146L15.5171 13.1262L15.2791 13.2124L15.1091 13.2868L14.9391 13.2985L14.7232 13.324L14.5531 13.3103L14.3593 13.2613L14.2522 13.2104L14.1451 13.1615L14.0278 13.0616L13.8986 12.9754L13.7796 12.8893L13.6606 12.7522L13.5535 12.666L13.4464 12.5289L13.3393 12.3331L13.1879 12.0981L13.0689 11.8886L12.8955 11.6242L12.7136 11.2326L12.5623 10.8605L12.3243 10.1301L12.1849 9.72081L12.0778 9.37419L11.9264 8.98255L11.7003 8.39506L11.4419 7.77429L11.1291 7.03016L10.8707 6.52296L10.5782 6.01381L10.3759 5.76512L10.2059 5.50663L9.88288 5.24618L9.61426 5.1091L9.25893 5.06014L8.9189 5.1091L8.67238 5.20702C8.60768 5.25619 8.53875 5.29753 8.46667 5.33038C8.38506 5.39964 8.30986 5.47839 8.24225 5.56538C8.17445 5.6494 8.09859 5.72429 8.01614 5.78862C7.98553 5.78862 7.87842 6.0334 7.87672 6.03731L7.76962 6.28405L7.6302 6.58171L7.5333 6.95378L7.42619 7.38656L7.36158 7.80758L7.28678 8.16595L7.26637 8.58697L7.28678 9.09612L7.31908 9.59156L7.33098 9.93817L7.35308 10.2848L7.42789 10.7176L7.72881 11.4245L7.97533 11.9199L8.23375 12.4271L8.44967 12.8364L8.81519 13.3436L9.41704 13.9644L9.86928 14.3736L10.8486 15.2529L11.5286 15.8404L12.0386 16.3103L12.6524 16.8547L13.1624 17.3756L13.5501 17.7673L14.6586 18.9834L15.2179 19.7138L15.6582 20.3581L16.1207 21.0767L16.357 21.5115L16.6698 22.0696L16.9503 22.7158L17.2411 23.4991L17.5097 24.2667L17.9296 25.381L18.1132 25.9685L18.2424 26.556L18.3496 27.2257L18.4465 27.9189L18.5859 29.0234L18.6828 30.7094L18.7253 31.7003L18.693 32.6168L18.6403 33.5841L18.5757 34.6495L18.4584 35.4543C18.4584 35.4543 18.3274 36.3727 18.307 36.4452C18.2866 36.5176 18.1149 37.3538 18.1132 37.3616L17.9194 38.094L17.7035 38.8871L17.4672 39.5823L17.1442 40.3127L16.8636 41.0314L16.5236 41.6894L16.1683 42.3571L15.8895 42.7919L15.2978 43.5869L15.0292 43.9081L14.8133 44.1568L14.4477 44.4917L13.5127 45.2475C13.5127 45.2475 13.0281 45.5824 12.9635 45.6079C12.8989 45.6333 12.377 45.9388 12.3719 45.9427L11.8346 46.2012L11.3246 46.4127L10.7432 46.538L10.0104 46.5987C10.0104 46.5987 9.59046 46.6614 9.55815 46.6614C9.52585 46.6614 9.01241 46.6516 9.00731 46.6496L9.00051 46.6418ZM154.824 46.5556H151.967L150.708 46.4812L150.028 46.3461L149.738 46.1836L149.469 45.9349L149.241 45.6118L149.124 45.3885L149.037 45.0909L148.983 44.7188L149.046 44.3272L149.153 44.0158L149.323 43.6555L149.551 43.3461L149.69 43.1855L149.884 42.927L149.991 42.6411L150.033 42.0536L149.926 41.1489L149.743 40.1189L149.593 39.4746L149.454 39.2279L149.313 39.032L149.024 38.8088L148.549 38.6599L148.109 38.6227L147.291 38.611L146.376 38.6482L145.526 38.6619C145.459 38.6703 145.394 38.6915 145.333 38.7246L145.064 38.8852L144.872 39.0575L144.732 39.3297L144.602 39.9485L144.494 40.6417L144.43 41.2625L144.355 42.0458L144.418 42.6039L144.644 43.0621L144.88 43.4205L145.151 43.7299L145.397 44.0902L145.591 44.4505L145.634 44.8853V45.2573L145.526 45.6039L145.397 45.8644C145.397 45.8644 145.227 46.0759 145.149 46.0759C145.071 46.0759 144.894 46.258 144.891 46.26L144.447 46.3853L143.673 46.448L142.738 46.4832L140.79 46.4714L139.43 46.397L138.665 46.2972L138.246 46.1855L137.869 46.025L137.578 45.7528L137.427 45.5785L137.288 45.2299L137.233 44.8833L137.223 44.5974L137.265 44.2625L137.396 44.0393L137.503 43.865L137.643 43.6927L137.867 43.4205L138.093 43.209L138.331 42.974L138.515 42.6764L138.666 42.4041L138.836 41.8597L138.923 41.3016L139.01 40.7553L139.6 36.878L140.246 32.466L141.053 26.9829L141.914 21.2315L142.225 19.1126L142.784 15.5877L143.124 13.2946L143.5 10.5178L143.738 8.85721L144.103 6.55234L144.35 5.01511L144.576 3.56403L144.78 2.59862L144.909 2.18934L145.079 1.81727L145.249 1.56857L145.431 1.39429L145.647 1.23371L145.916 1.13384L146.487 1.0085L147.929 0.985001L149.478 1.05942L149.897 1.12209L150.134 1.2572L150.317 1.39429L150.447 1.55486L150.598 1.70369L150.727 1.92693L150.846 2.16193L150.945 2.52224L151.052 2.93152L151.514 5.49683L152.278 10.1203L153.01 14.8045L153.485 18.0258L154.121 21.7191L154.745 25.6473L155.326 29.2897L156.006 33.3178L156.63 36.9739L157.157 39.923L157.339 41.0255L157.478 41.8304L157.648 42.3376L157.863 42.7723L158.186 43.2188L158.356 43.3911L158.592 43.677L158.762 43.9492L158.891 44.2586L158.968 44.5445L159 44.9166L158.946 45.2142L158.828 45.5746L158.699 45.8233L158.449 46.0465L158.255 46.2423C158.154 46.2905 158.05 46.3279 157.943 46.354C157.871 46.3707 157.802 46.3957 157.735 46.4284C157.657 46.4684 157.575 46.4979 157.49 46.5165C157.415 46.5165 156.361 46.5772 156.351 46.5772L154.824 46.5556ZM146.97 22.5611L146.905 22.8216L146.829 23.1819L146.766 23.5735L146.55 24.8268L146.334 26.3934L146.152 27.682L145.948 29.0527L145.722 30.7642L145.615 31.5945L145.552 32.3779L145.594 32.7871L145.681 32.9986L145.81 33.171L145.98 33.2826L146.176 33.3687L146.572 33.4177L148.014 33.3687L148.199 33.2689L148.361 33.1572L148.457 33.0065L148.522 32.8322L148.576 32.5835L148.587 32.2976L148.565 32.0626L148.276 29.7127L147.9 26.6382L147.371 23.1682L147.329 22.8216L147.317 22.659L147.23 22.5474L147.143 22.5102L146.97 22.5611ZM88.6807 46.401L87.2713 46.3383L86.9313 46.2521L86.576 46.1523L86.3073 46.0171L86.0608 45.8213L85.8755 45.6255L85.7055 45.4296L85.6086 45.2338L85.544 44.9225L85.5321 44.6992L85.5865 44.4153L85.6409 44.1803L85.748 43.957L85.8551 43.7221L85.9843 43.5497L86.1237 43.3539L86.3175 43.1307L86.5216 42.8957L86.6916 42.6587L86.831 42.2671L86.9279 41.8754L86.9823 41.3428L87.0146 40.2403V39.0497L87.0248 37.2657L87.0367 34.5241L86.9806 31.8961L87.035 29.0469L87.0469 26.4815L87.0214 23.0644L87.0333 20.9828L87.0214 17.1641L87.0333 15.1452L87.0554 11.8161L87.0877 9.99496L87.0554 8.48318L87.0333 6.94595L86.9585 5.90611L86.8939 5.51446L86.8174 5.24226L86.6236 4.85062L86.3974 4.5412L86.173 4.30622L85.9469 3.99485L85.7633 3.72265L85.6613 3.50137L85.5848 3.18021L85.5644 2.93152L85.6069 2.63386L85.6511 2.39886L85.7803 2.16193L85.9095 1.97589L86.0795 1.80161L86.2495 1.65277L86.5182 1.50395L86.8191 1.39232L87.1744 1.3042L87.6709 1.2435L88.1435 1.22978H88.5192L89.3914 1.21608L90.5645 1.24154H91.8872L93.3187 1.25328L94.3966 1.3649L94.7825 1.49024L95.0834 1.65082L95.3844 1.84664L95.5799 2.10709L95.7074 2.36753L95.8383 2.73961L95.8502 2.96285L95.8383 3.28596L95.7414 3.62082L95.602 3.95373L95.3861 4.31405L95.602 3.95373L95.7414 3.61886L95.8383 3.284L95.8502 2.96089L95.8383 2.73961L95.7091 2.36753L95.5816 2.10905L95.3878 1.8486L95.0868 1.65277L94.7842 1.4922L94.3983 1.36883L93.3204 1.2572L91.8889 1.2435H90.5747L89.4016 1.21804L88.5294 1.22978H88.1537L87.681 1.2435L87.1863 1.30616L86.831 1.39232L86.5284 1.50395L86.2597 1.65277L86.0897 1.80161L85.9197 1.97589L85.7905 2.16193L85.6613 2.39886L85.6188 2.63386L85.5763 2.93152L85.5967 3.18021L85.6732 3.50137L85.7701 3.71287L85.9537 3.98506L86.1781 4.29446L86.4042 4.52946L86.6304 4.83886L86.8242 5.23052L86.9007 5.50272L86.9653 5.89436L87.0401 6.9342L87.0622 8.47144L87.0945 9.9832L87.0622 11.8044L87.0401 15.1334L87.0299 17.1524L87.0401 20.971L87.0214 23.0644L87.0418 26.4855L87.0316 29.0508L86.9806 31.8961L87.035 34.5241L87.0248 37.2657L87.0146 39.0497V40.2403L86.9823 41.3428L86.9279 41.8754L86.831 42.2671L86.6916 42.6587L86.5216 42.8937L86.3192 43.1287L86.1254 43.35L85.986 43.5458L85.8568 43.7181L85.748 43.9531L85.6409 44.1764L85.5865 44.4114L85.5321 44.6953L85.544 44.9185L85.6086 45.228L85.7055 45.4238L85.8755 45.6196L86.0591 45.8154L86.3056 46.0112L86.5743 46.1483L86.9313 46.2482L87.2713 46.3324L88.6807 46.3951L90.8654 46.4088L91.8651 46.3598L92.909 46.3853L93.7148 46.3716L94.3286 46.3226L94.7808 46.2365L95.1888 46.025L95.4575 45.7763L95.6734 45.4786L95.823 45.0439L95.8655 44.5739L95.8213 45.0439L95.6717 45.4786L95.4558 45.7763L95.1871 46.025L94.7791 46.2345L94.3269 46.3207L93.7131 46.3696L92.9073 46.3833L91.8617 46.3598L90.862 46.4088L88.6773 46.3951L87.2679 46.3324L86.9279 46.2463L86.5726 46.1464L86.3039 46.0112L86.0574 45.8154L85.8738 45.6196L85.7038 45.4238L85.6069 45.228L85.5406 44.9185L85.5304 44.6953L85.5848 44.4114L85.6392 44.1764L85.7463 43.9531L85.8534 43.7181L85.9826 43.5458L86.122 43.35L86.3158 43.1267L86.5199 42.8918L86.6899 42.6548L86.8293 42.2632L86.9262 41.8715L86.9806 41.3389L87.0129 40.2344V39.0438L87.0248 37.2598L87.035 34.5084L86.9823 31.8961L87.0367 29.0449L87.0486 26.4815L87.0214 23.0644L87.0316 20.9828L87.0214 17.1661L87.0316 15.1471L87.0537 11.8181L87.086 9.99692L87.0537 8.48514L87.0316 6.94791L86.9568 5.90611L86.8922 5.51446L86.8157 5.24226L86.6236 4.85062L86.3958 4.5412L86.1696 4.30622L85.9452 3.99681L85.7616 3.72461L85.6613 3.50137L85.5865 3.18021L85.5644 2.93347L85.6086 2.63582L85.6511 2.40084L85.7803 2.16584L85.9095 1.9798L86.0795 1.80552L86.2495 1.65669L86.5182 1.50787L86.8191 1.39625L87.1744 1.31007L87.6692 1.24741L88.1418 1.23371H88.5192L89.4016 1.22978L90.573 1.25524H91.8957L93.3272 1.26896L94.4051 1.38058L94.791 1.50395L95.0919 1.66452L95.3929 1.86036L95.5884 2.1208L95.7159 2.37929L95.8468 2.75135L95.857 2.97461L95.8468 3.29575L95.7499 3.63062L95.6105 3.96548L95.3946 4.32384L95.2024 4.55883L94.9117 4.87019L94.6533 5.30492L94.5139 5.75142L94.4374 6.27231L94.4272 7.03994L94.4153 8.15419L94.4051 9.49364L94.3609 11.168L94.3286 16.138V20.3013L94.3184 22.5827L94.2861 27.8112V36.7722L94.2538 39.0516L94.2963 41.3702L94.3507 41.8774L94.4901 42.3611L94.672 42.7331L95.012 43.1248L95.3521 43.4734L95.6649 43.865L95.7941 44.149L95.8689 44.5837L95.7941 44.1509L95.6649 43.865L95.3521 43.4734L95.012 43.1267L94.672 42.7351L94.4901 42.363L94.3507 41.8793L94.2963 41.3702L94.2538 39.0516L94.2861 36.7722V27.8112L94.3167 22.5827L94.3286 20.3032V16.138L94.3592 11.168L94.4051 9.4956L94.4153 8.15615L94.4272 7.03994L94.4374 6.27231L94.5139 5.75142L94.6533 5.30492L94.9117 4.87215L95.2024 4.56275L95.3963 4.32775L95.2041 4.56275L94.9134 4.87215L94.655 5.30492L94.5156 5.75142L94.4391 6.27231L94.4289 7.03994L94.417 8.15615L94.4068 9.4956L94.3643 11.168L94.332 16.138V20.3032L94.3201 22.5827L94.2878 27.8112V36.7722L94.2555 39.0516L94.2997 41.3702L94.3541 41.8793L94.4935 42.3611L94.6754 42.7331L95.0154 43.1248L95.3555 43.4714L95.6683 43.863L95.7975 44.149L95.8723 44.5837L95.8298 45.0537L95.6802 45.4884L95.4643 45.7861L95.1956 46.0348L94.7859 46.2463L94.3337 46.3344L93.7199 46.3833L92.9141 46.397L91.8702 46.3716L90.8705 46.4225L88.6807 46.401ZM117.651 46.3461L116.995 46.26L116.704 46.1483L116.274 45.9878L115.949 45.7391L115.703 45.5276L115.533 45.2045L115.426 44.9068L115.361 44.4858L115.373 44.1255L115.458 43.7906L115.577 43.5419L115.728 43.3069L115.879 43.1561L116.049 42.9603L116.201 42.7978L116.393 42.551L116.522 42.3023L116.651 41.9107L116.738 41.564L116.803 40.5242L116.77 33.5587L116.748 28.5886L116.738 24.7211L116.728 21.7347V17.9298L116.738 14.6341L116.706 9.21948L116.738 7.3983L116.706 6.50533L116.641 5.96094L116.577 5.489L116.425 5.1561L116.167 4.78403L115.951 4.52555L115.735 4.21417L115.565 3.93023L115.456 3.58362L115.403 3.17434L115.436 2.76507L115.533 2.41845L115.63 2.20891L115.813 1.96022L116.039 1.67628L116.459 1.44128L116.847 1.32966L117.438 1.20434L118.527 1.15538L120.031 1.14167L121.391 1.16712L123.029 1.14167L123.996 1.19062L124.545 1.28854L124.815 1.43736L125.052 1.63319L125.256 1.84468L125.426 2.07968L125.545 2.35383L125.62 2.62603L125.674 2.98635V3.17043L125.652 3.32121L125.555 3.56992L125.47 3.76574L125.308 4.01444L125.138 4.25139L124.892 4.53533L124.654 4.84473L124.514 5.11693L124.375 5.44984L124.321 5.87086L124.278 6.89895L124.256 7.94074L124.278 9.46427L124.266 12.01L124.278 14.824L124.266 16.4846L124.299 17.8965L124.351 18.2431L124.418 18.4918L124.547 18.6661L124.674 18.815L124.868 18.9501L125.378 19.0245L126.099 19.0597L126.745 18.999L126.927 18.9246L127.097 18.8502L127.257 18.7268L127.376 18.531L127.495 18.2823L127.549 17.9592L127.602 17.1426L127.582 15.6171L127.602 13.7842L127.592 11.1445L127.582 9.89313L127.602 8.13069V6.66983L127.571 6.11173L127.527 5.72009L127.452 5.39697L127.282 5.03861L126.905 4.46876L126.755 4.27292L126.585 4.0771L126.434 3.79316L126.305 3.52096L126.242 3.23505L126.21 3.01181L126.22 2.70241V2.52224L126.317 2.28725L126.436 2.09142L126.555 1.91714L126.716 1.72132L126.867 1.59794L127.083 1.44715L127.374 1.33553L127.998 1.13971L128.493 1.11621L129.385 1.0418L130.3 1.02809H132.549L134.419 1.10251L135.28 1.20041L135.538 1.27483L135.797 1.39821L136.035 1.54703L136.217 1.75656L136.387 2.01896L136.504 2.31662L136.558 2.61427L136.57 3.03727L136.506 3.35842L136.431 3.58166L136.245 3.87932L136.106 4.07514L135.848 4.38454L135.644 4.67045L135.462 4.97985L135.343 5.28731L135.236 5.98248L135.203 9.68751L135.191 15.6602L135.149 21.1433L135.137 26.2348V31.9842L135.169 36.3453L135.137 39.0105L135.115 41.0804L135.137 41.6385L135.244 42.0301L135.363 42.4022L135.48 42.7234L135.717 43.0445L135.922 43.3186L136.092 43.5791L136.223 43.8141L136.33 44.0863L136.385 44.4212V44.7325L136.288 45.1046L136.118 45.416L135.859 45.7273L135.611 45.9368L135.234 46.0857L134.644 46.1855L133.513 46.26L131.643 46.3109L129.513 46.2854L128.081 46.2227L127.512 46.1503L127.102 46.0759C126.984 46.0097 126.871 45.9345 126.762 45.8507C126.68 45.7733 126.594 45.7026 126.504 45.6392L126.289 45.3552L126.15 45.1203L126.096 44.8089L126.073 44.523L126.128 44.2743L126.225 44.0373L126.334 43.8141L126.463 43.5791L126.602 43.4048L126.806 43.1698L127.022 42.9583L127.172 42.7488L127.323 42.553L127.41 42.3669L127.529 42.1926L127.582 41.848L127.614 41.2155L127.636 37.5085L127.614 32.1311L127.592 27.7427V25.9469L127.539 25.289L127.454 25.0168L127.367 24.8699L127.238 24.7465L127.109 24.6741L126.939 24.6232L126.575 24.6094L125.973 24.6232L125.434 24.6369L125.047 24.6623L124.691 24.7857L124.521 24.9228L124.402 25.0461L124.351 25.3066L124.329 25.7511L124.287 26.9417L124.242 28.8138V33.2121L124.275 35.6168L124.254 37.9452L124.275 39.034V40.5223L124.297 41.5268L124.317 42.0478L124.36 42.3943L124.467 42.6176L124.618 42.9153L124.822 43.2129L125.028 43.4734L125.198 43.6692L125.317 43.818L125.424 43.9923L125.512 44.2018L125.567 44.4388L125.524 44.9342L125.373 45.3552L125.203 45.6274C125.203 45.6274 125.009 45.8507 124.945 45.8644C124.862 45.9089 124.786 45.9677 124.718 46.0387C124.61 46.0992 124.496 46.1452 124.378 46.1758C124.262 46.1999 124.148 46.2372 124.038 46.2874L123.477 46.3128H122.779L121.929 46.3246L120.568 46.35L117.651 46.3461ZM22.3381 45.931L21.6818 45.8448L21.3962 45.7312L20.9661 45.5707L20.643 45.322L20.3965 45.1124L20.2265 44.7893L20.1194 44.4917L20.0548 44.0706L20.065 43.7103L20.1517 43.3754L20.2707 43.1267L20.422 42.8918L20.5733 42.7429L20.7433 42.5471L20.893 42.3846L21.0885 42.1378L21.2177 41.8891L21.3469 41.4975L21.4336 41.1509L21.4982 40.111L21.4761 35.4269L21.4642 33.1475L21.4421 28.1774L21.4319 24.3118L21.3962 21.3215V17.5186L21.4081 14.2228L21.3792 8.78867L21.4115 6.96748L21.3792 6.07453L21.3146 5.53013L21.25 5.05818L21.0987 4.72333L20.8403 4.35125L20.6243 4.09277L20.4084 3.78336L20.2384 3.49746L20.1313 3.15084L20.0769 2.74157L20.1092 2.33033L20.2061 1.98372L20.303 1.77418L20.4849 1.52548L20.7127 1.24154L21.1327 1.00459L21.5203 0.892969L22.112 0.767634L23.1983 0.71869L24.7047 0.706932L26.0648 0.73239L27.7003 0.706932L28.6677 0.755891L29.2151 0.85381L29.4854 1.00263L29.7235 1.19845L29.9275 1.40995L30.0975 1.64495L30.2148 1.91714L30.2896 2.18934L30.344 2.54966V2.73374L30.3219 2.88452L30.225 3.13321L30.1383 3.32905L29.9768 3.57775L29.8068 3.81273L29.5585 4.09864L29.3222 4.40804L29.1828 4.68024L29.0434 5.01315L28.989 5.43417L28.9465 6.46226L28.9261 7.50209L28.9465 9.02758L28.9363 11.5733L28.9465 14.3854L28.9363 16.046L28.9686 17.4579L29.023 17.8045L29.0876 18.0532L29.2151 18.2255L29.3443 18.3744L29.5398 18.5114L30.0499 18.5858L30.7707 18.623L31.4151 18.5604L31.5987 18.486L31.7687 18.4116L31.9302 18.2882L32.0492 18.0924L32.1665 17.8437L32.221 17.5205L32.2754 16.7039L32.2533 15.1804L32.2754 13.3455L32.2771 10.7078L32.2652 9.45644L32.2873 7.694V6.24294L32.255 5.68483L32.2108 5.29318L32.1376 4.97202L31.9676 4.61171L31.597 4.04185L31.4457 3.84603L31.2842 3.65019L31.1329 3.36429L31.0054 3.0921L30.9407 2.80618L30.9101 2.58294L30.9221 2.27355V2.11101L31.019 1.87601L31.1363 1.68019L31.2553 1.50591L31.4253 1.31007L31.5766 1.18671L31.7925 1.03592L32.0832 0.924299L32.7072 0.728476L33.2036 0.704975L34.0962 0.630557L35.0109 0.616856H37.2602L39.1303 0.691274L39.9906 0.791135L40.249 0.865553L40.5074 0.990888L40.7454 1.13775L40.9273 1.34925L41.0974 1.61166L41.2164 1.9093L41.2708 2.20696L41.2827 2.62799L41.2181 2.94915L41.1433 3.17434L40.9597 3.472L40.8202 3.66782L40.5618 3.97722L40.3578 4.26313L40.1759 4.57253L40.0569 4.87999L39.9498 5.57516L39.9175 9.28019L39.9056 15.2548L39.8631 20.738L39.8512 25.8294V31.5789L39.8835 35.9399L39.8512 38.6051L39.8291 40.675L39.8512 41.2331L39.96 41.6248L40.0773 41.9968L40.1946 42.318L40.4309 42.6391L40.6366 42.9133L40.8066 43.1738L40.9375 43.4087L41.0447 43.6809L41.0974 44.0178V44.3252L41.0004 44.6992L40.8304 45.0086L40.572 45.318L40.3255 45.5295L39.9481 45.6783L39.3564 45.7782L38.2275 45.8526L36.3574 45.9036L34.2271 45.8781L32.7956 45.8154L32.2261 45.743L31.8163 45.6686C31.6986 45.6035 31.5849 45.5289 31.4763 45.4453C31.3942 45.3685 31.3079 45.2979 31.2179 45.2338L31.002 44.9499L30.8625 44.7149L30.8081 44.4035L30.7877 44.1176L30.8421 43.8689L30.9169 43.6457L31.0241 43.4224L31.1533 43.1875L31.2927 43.0132L31.4967 42.7782L31.7126 42.5667L31.8639 42.3571L32.0152 42.1613L32.1019 41.9772L32.2193 41.803L32.2737 41.4564L32.306 40.8258L32.3281 37.1208L32.306 31.7414L32.2839 27.3549V25.5592L32.2295 24.9012L32.1427 24.629L32.0577 24.4802L31.9285 24.3549L31.7993 24.2824L31.6293 24.2335L31.2638 24.2198L30.123 24.2452L29.7354 24.2707L29.38 24.394L29.21 24.5292L29.091 24.6545L29.0366 24.913L29.0162 25.3575L28.972 26.5481L28.9295 28.4183V32.8165L28.9601 35.2213L28.9397 37.5496L28.9601 38.6384V40.1267L28.9822 41.1313L29.0026 41.6502L29.0468 41.9968L29.1539 42.2201L29.3052 42.5177L29.5092 42.8154L29.7133 43.0758L29.8833 43.2717L30.0006 43.4205L30.1077 43.5948L30.1944 43.8043L30.2488 44.0412L30.2063 44.5367L30.055 44.9577L29.885 45.2319C29.885 45.2319 29.6912 45.4551 29.6248 45.4669C29.5432 45.5114 29.4676 45.5695 29.4004 45.6392C29.2923 45.7006 29.1781 45.7466 29.0604 45.7763C28.9441 45.8001 28.8301 45.8375 28.7204 45.8879L28.1593 45.9134H27.4606L26.6105 45.9251L25.2504 45.9506L22.3381 45.931Z" fill="#F4F4F4"/>
</svg>
